<svg width="706" height="776" viewBox="0 0 706 776" fill="none" xmlns="http://www.w3.org/2000/svg">
<path d="M294.265 64C287.265 152.167 256.865 324.6 191.265 309C109.265 289.5 130.765 149 76.2652 229C21.7652 309 0.265202 513.5 76.2652 583.5C152.265 653.5 218.265 698 294.265 700C370.265 702 327.765 583.5 391.765 583.5C455.765 583.5 410.765 682.5 469.265 735C527.765 787.5 654.265 751 632.765 653.5C611.265 556 659.765 489.5 580.265 478C500.765 466.5 387.765 456.5 418.765 408C449.765 359.5 662.265 398 673.765 353.5C685.265 309 739.765 178.5 615.265 229C490.765 279.5 413.265 387 391.765 254.5C370.265 122 408.765 64 455.765 64" stroke="white" stroke-width="20"/>
<text fill="black" xml:space="preserve" style="white-space: pre" font-family="Roboto" font-size="40" font-weight="900" letter-spacing="0em"><tspan x="0" y="91.1094">simple is good</tspan></text>
<text fill="black" xml:space="preserve" style="white-space: pre" font-family="Roboto" font-size="40" font-weight="900" letter-spacing="0em"><tspan x="409" y="37.1094">simple is good</tspan></text>
<text fill="black" xml:space="preserve" style="white-space: pre" font-family="Roboto" font-size="40" font-weight="900" letter-spacing="0em"><tspan x="66" y="364.109">need game engine!</tspan></text>
<text fill="black" xml:space="preserve" style="white-space: pre" font-family="Roboto" font-size="40" font-weight="900" letter-spacing="0em"><tspan x="27" y="766.109">need physics engine!</tspan></text>
<text fill="black" xml:space="preserve" style="white-space: pre" font-family="Roboto" font-size="40" font-weight="900" letter-spacing="0em"><tspan x="503" y="439.109">need ABM!</tspan></text>
</svg>
